{"title":"Mars Needs Moms! 2011 DVD9rip Dutch Klam","uid":6670521,"size":1470989805,"categoryP":"video","categoryS":"movies","magnet":"?xt=urn:btih:c047d2d0f96cb17e6c4b9a4dd6d8207a6684d0b4&amp;dn=Mars+Needs+Moms%21+2011+DVD9rip+Dutch+Klam&amp;tr=udp%3A%2F%2Ftracker.openbittorrent.com%3A80&amp;tr=udp%3A%2F%2Fopen.demonii.com%3A1337&amp;tr=udp%3A%2F%2Ftracker.coppersurfer.tk%3A6969&amp;tr=udp%3A%2F%2Fexodus.desync.com%3A6969","seeders":0,"leechers":0,"uploader":"Klambake","files":-1,"time":1315855526,"description":"Nederlands gesproken\nDe negen jaar oude Milo (Seth Green) komt er achter hoe erg hij zijn moeder (Joan Cusack) nodig heeft wanneer ze wordt ontvoerd door marsmannetjes. Ze willen haar als moeder gebruiken voor hun eigen jonkies...\n\nDutch spoken\nA young boy named Milo gains a deeper appreciation for his mom after Martians come to Earth to take her away. \n\n------------------ Dutch Friends ------------------\n\nYou can find my Friends at: http://www.Film-Test.nl \n                    \n------ They got my dutchs subs ---- and more ------\n\nGeneral:\n\nComplete name                    : Mars Needs Moms\\Mars Needs Moms.avi\nFormat                           : AVI\nFormat/Info                      : Audio Video Interleave\nFile size                        : 1.37 GiB\nDuration                         : 1h 24mn\nOverall bit rate                 : 2 322 Kbps\n\nVideo:\n\nFormat                           : MPEG-4 Visual\nFormat profile                   : Simple@L3\nFormat settings, BVOP            : No\nFormat settings, QPel            : No\nFormat settings, GMC             : No warppoints\nFormat settings, Matrix          : Default (H.263)\nCodec ID                         : XVID\nCodec ID/Hint                    : XviD\nDuration                         : 1h 24mn\nBit rate                         : 1 927 Kbps\nWidth                            : 720 pixels\nHeight                           : 500 pixels\nDisplay aspect ratio             : 1.440\nFrame rate                       : 25.000 fps\nColor space                      : YUV\nChroma subsampling               : 4:2:0\nBit depth                        : 8 bits\nScan type                        : Progressive\nBits/(Pixel*Frame)               : 0.214\nStream size                      : 1.14 GiB (83%)\nWriting library                  : XviD 1.1.2 (UTC 2006-11-01)\n\nAudio:\n\nFormat                           : AC-3\nFormat/Info                      : Audio Coding 3\nMode extension                   : CM (complete main)\nCodec ID                         : 2000\nDuration                         : 1h 24mn\nBit rate mode                    : Constant\nBit rate                         : 384 Kbps\nChannel(s)                       : 6 channels\nChannel positions                : Front: L C R, Side: L R, LFE\nSampling rate                    : 48.0 KHz\nBit depth                        : 16 bits\nStream size                      : 232 MiB (17%)\nAlignment                        : Aligned on interleaves\nInterleave, duration             : 32 ms (0.80 video frame)\n","torrent":{"xt":"urn:btih:c047d2d0f96cb17e6c4b9a4dd6d8207a6684d0b4","amp;dn":"Mars+Needs+Moms%21+2011+DVD9rip+Dutch+Klam","amp;tr":["udp%3A%2F%2Ftracker.openbittorrent.com%3A80","udp%3A%2F%2Fopen.demonii.com%3A1337","udp%3A%2F%2Ftracker.coppersurfer.tk%3A6969","udp%3A%2F%2Fexodus.desync.com%3A6969"],"infoHash":"c047d2d0f96cb17e6c4b9a4dd6d8207a6684d0b4","infoHashBuffer":{"type":"Buffer","data":[192,71,210,208,249,108,177,126,108,75,154,77,214,216,32,122,102,132,208,180]},"announce":[],"urlList":[]}}